<svg width="30" height="30" viewBox="0 0 30 30" fill="none" xmlns="http://www.w3.org/2000/svg">
<path d="M25.7868 19.9986C25.6895 19.8815 25.594 19.7643 25.5003 19.6512C24.2112 18.092 23.4313 17.151 23.4313 12.7371C23.4313 10.452 22.8846 8.57696 21.8071 7.17071C21.0126 6.13184 19.9385 5.34375 18.5229 4.76133C18.5047 4.7512 18.4884 4.7379 18.4749 4.72207C17.9657 3.01699 16.5723 1.875 15.0008 1.875C13.4294 1.875 12.0366 3.01699 11.5274 4.72031C11.5138 4.73556 11.4978 4.74844 11.4799 4.7584C8.17643 6.11836 6.57096 8.72754 6.57096 12.7354C6.57096 17.151 5.79225 18.092 4.50202 19.6494C4.40827 19.7625 4.31276 19.8774 4.21549 19.9969C3.96424 20.2999 3.80506 20.6685 3.75677 21.0592C3.70849 21.4498 3.77312 21.8461 3.94303 22.2012C4.30456 22.9629 5.07506 23.4358 5.95456 23.4358H24.0536C24.929 23.4358 25.6942 22.9635 26.0569 22.2053C26.2275 21.8501 26.2928 21.4535 26.2449 21.0624C26.1971 20.6713 26.0381 20.3021 25.7868 19.9986Z" fill="black"/>
<path d="M15.0002 28.1259C15.8471 28.1252 16.6779 27.8953 17.4047 27.4607C18.1314 27.026 18.727 26.4027 19.1282 25.657C19.1471 25.6212 19.1564 25.5812 19.1553 25.5408C19.1541 25.5004 19.1426 25.461 19.1217 25.4263C19.1008 25.3917 19.0713 25.3631 19.0361 25.3432C19.0009 25.3234 18.9612 25.3129 18.9207 25.313H11.0809C11.0405 25.3128 11.0006 25.3232 10.9653 25.343C10.93 25.3628 10.9005 25.3915 10.8795 25.4261C10.8586 25.4607 10.847 25.5002 10.8458 25.5407C10.8446 25.5811 10.854 25.6212 10.8729 25.657C11.274 26.4026 11.8695 27.0259 12.5962 27.4605C13.3228 27.8952 14.1535 28.1251 15.0002 28.1259Z" fill="black"/>
</svg>
