<svg width="30" height="30" viewBox="0 0 30 30" fill="none" xmlns="http://www.w3.org/2000/svg">
<path d="M27.7145 2.29116C27.5228 2.09949 27.2798 1.96732 27.0147 1.91056C26.7496 1.8538 26.4738 1.87488 26.2204 1.97124L2.78112 10.8429H2.77644C2.50618 10.9469 2.2746 11.1317 2.11332 11.3722C1.95204 11.6127 1.86893 11.8971 1.87534 12.1866C1.88176 12.4761 1.97737 12.7565 2.14914 12.9896C2.3209 13.2227 2.56044 13.3971 2.83503 13.489L2.85905 13.4966L10.904 16.932C11.0609 16.9796 11.2276 16.9853 11.3873 16.9484C11.5471 16.9114 11.6944 16.8333 11.8145 16.7216L24.7262 4.69058C24.7647 4.6521 24.8104 4.62159 24.8607 4.60076C24.9109 4.57994 24.9648 4.56923 25.0192 4.56923C25.0736 4.56923 25.1275 4.57994 25.1778 4.60076C25.228 4.62159 25.2737 4.6521 25.3122 4.69058C25.3507 4.72905 25.3812 4.77473 25.402 4.82499C25.4228 4.87526 25.4335 4.92914 25.4335 4.98355C25.4335 5.03796 25.4228 5.09183 25.402 5.1421C25.3812 5.19237 25.3507 5.23804 25.3122 5.27652L13.2805 18.1824C13.1689 18.3025 13.0907 18.4498 13.0538 18.6096C13.0169 18.7693 13.0226 18.936 13.0702 19.0929L16.5067 27.1425C16.5102 27.1543 16.5137 27.1648 16.5178 27.1759C16.7053 27.7191 17.18 28.1023 17.7536 28.1281C17.7788 28.1281 17.7876 28.1281 17.8122 28.1281C18.1018 28.1297 18.3852 28.0442 18.6255 27.8827C18.8658 27.7211 19.052 27.491 19.1598 27.2222L28.0303 3.78941C28.1281 3.53586 28.1503 3.25942 28.0942 2.99353C28.0382 2.72764 27.9063 2.48368 27.7145 2.29116Z" fill="black"/>
</svg>
