<svg width="30" height="30" viewBox="0 0 30 30" fill="none" xmlns="http://www.w3.org/2000/svg">
<path d="M19.4897 3.78472C18.3495 2.55366 16.7569 1.87573 14.9991 1.87573C13.2319 1.87573 11.634 2.54956 10.4991 3.773C9.35181 5.00991 8.79283 6.69097 8.92408 8.5062C9.18424 12.0875 11.9094 15.0007 14.9991 15.0007C18.0887 15.0007 20.8092 12.088 21.0735 8.50737C21.2065 6.70854 20.644 5.03101 19.4897 3.78472Z" fill="black"/>
<path d="M25.3119 28.1253H4.68686C4.4169 28.1288 4.14955 28.072 3.90426 27.9592C3.65897 27.8464 3.44192 27.6804 3.26889 27.4731C2.88803 27.0178 2.73451 26.3961 2.84819 25.7674C3.34272 23.0241 4.88608 20.7196 7.31186 19.1018C9.46694 17.6657 12.1968 16.8752 14.9994 16.8752C17.8019 16.8752 20.5318 17.6663 22.6869 19.1018C25.1126 20.719 26.656 23.0235 27.1505 25.7669C27.2642 26.3956 27.1107 27.0172 26.7298 27.4725C26.5569 27.6799 26.3398 27.8461 26.0945 27.959C25.8492 28.0719 25.5819 28.1287 25.3119 28.1253Z" fill="black"/>
</svg>
