<svg width="16" height="16" viewBox="0 0 16 16" fill="none" xmlns="http://www.w3.org/2000/svg">
<path d="M11.753 5.50195H8.50229V10.0342C8.50229 10.1668 8.4496 10.294 8.35581 10.3878C8.26202 10.4816 8.13481 10.5343 8.00218 10.5343C7.86954 10.5343 7.74233 10.4816 7.64855 10.3878C7.55476 10.294 7.50207 10.1668 7.50207 10.0342V5.50195H4.25136C3.78728 5.50245 3.34235 5.68702 3.0142 6.01518C2.68605 6.34333 2.50147 6.78826 2.50098 7.25234V13.2536C2.50147 13.7177 2.68605 14.1627 3.0142 14.4908C3.34235 14.819 3.78728 15.0035 4.25136 15.004H11.753C12.2171 15.0035 12.662 14.819 12.9902 14.4908C13.3183 14.1627 13.5029 13.7177 13.5034 13.2536V7.25234C13.5029 6.78826 13.3183 6.34333 12.9902 6.01518C12.662 5.68702 12.2171 5.50245 11.753 5.50195Z" fill="black"/>
<path d="M8.50295 2.70904L10.1501 4.35588C10.2447 4.44572 10.3706 4.49507 10.501 4.4934C10.6314 4.49173 10.7561 4.43917 10.8483 4.34694C10.9405 4.25471 10.9931 4.13009 10.9948 3.99966C10.9964 3.86923 10.9471 3.74331 10.8572 3.64875L8.35633 1.14785C8.26254 1.05412 8.13537 1.00146 8.00277 1.00146C7.87017 1.00146 7.743 1.05412 7.6492 1.14785L5.1483 3.64875C5.05846 3.74331 5.00911 3.86923 5.01078 3.99966C5.01245 4.13009 5.06501 4.25471 5.15724 4.34694C5.24948 4.43917 5.37409 4.49173 5.50452 4.4934C5.63495 4.49507 5.76087 4.44572 5.85543 4.35588L7.50259 2.70904V5.50285H8.50295V2.70904Z" fill="black"/>
</svg>
